Coordinates
version=1
nRows=30
nColumns=38
inDegrees=no

Units are S.I. units (second, meters, Newtons, ...)
If the header above contains a line with 'inDegrees', this indicates whether rotational values are in degrees (yes) or radians (no).

endheader
time	pelvis_tilt	pelvis_list	pelvis_rotation	pelvis_tx	pelvis_ty	pelvis_tz	hip_flexion_r	hip_adduction_r	hip_rotation_r	knee_angle_r	ankle_angle_r	subtalar_angle_r	mtp_angle_r	hip_flexion_l	hip_adduction_l	hip_rotation_l	knee_angle_l	ankle_angle_l	subtalar_angle_l	mtp_angle_l	lumbar_extension	lumbar_bending	lumbar_rotation	arm_flex_r	arm_add_r	arm_rot_r	elbow_flex_r	pro_sup_r	wrist_flex_r	wrist_dev_r	arm_flex_l	arm_add_l	arm_rot_l	elbow_flex_l	pro_sup_l	wrist_flex_l	wrist_dev_l
0	0.4409	1.48049	-1.91524	0.684636	1.86442	0.934885	-0.114801	-0.0748295	-0.0415437	0.0808749	0.0728539	0	0	-0.146444	0.0331736	-0.0802134	0.00351029	0.0406692	0	0	-0.203311	-0.00909205	-0.0829692	0.0125237	-0.272874	0.553306	0.580716	1.53962	0	0	0.111583	-0.442109	0.39441	0.778774	1.33921	0	0
0.01	0.454922	1.48254	-1.92987	0.686127	1.86408	0.934525	-0.11514	-0.0775053	-0.0402214	0.0764214	0.0723629	0	0	-0.143325	0.0349376	-0.0666703	0.00699016	0.0435384	0	0	-0.201733	-0.00855966	-0.0843083	0.0172278	-0.275472	0.555619	0.585647	1.53751	0	0	0.11176	-0.437004	0.398747	0.781762	1.34107	0	0
0.02	0.455857	1.48392	-1.93287	0.686753	1.86367	0.934383	-0.11577	-0.078242	-0.0396927	0.0728048	0.0715409	0	0	-0.140133	0.0354486	-0.0705712	0.0121227	0.0481269	0	0	-0.201519	-0.0087873	-0.0838555	0.0223436	-0.275034	0.554339	0.588467	1.52949	0	0	0.111785	-0.434776	0.405338	0.786222	1.34595	0	0
0.03	0.461926	1.48652	-1.94038	0.687485	1.86334	0.934156	-0.114261	-0.0791627	-0.0420481	0.0706141	0.0714815	0	0	-0.134851	0.035912	-0.0738747	0.0183873	0.0533023	0	0	-0.199994	-0.00851295	-0.0836243	0.0273469	-0.274927	0.554455	0.590879	1.52457	0	0	0.110385	-0.433665	0.411901	0.791984	1.35128	0	0
0.04	0.45166	1.48563	-1.93192	0.68746	1.86279	0.934302	-0.118701	-0.0786118	-0.039905	0.0650344	0.0693706	0	0	-0.133905	0.0358038	-0.0920711	0.0237579	0.0586672	0	0	-0.202619	-0.0103646	-0.0829876	0.0325521	-0.272357	0.554735	0.591769	1.52127	0	0	0.110022	-0.436929	0.426527	0.798076	1.34089	0	0
0.05	0.247843	1.48241	-1.72513	0.688642	1.8625	0.933832	-0.132304	-0.0609662	-0.0406594	0.0561875	0.0648737	0	0	-0.138527	0.0176945	-0.0952826	0.0331125	0.0755609	0	0	-0.213963	0.00428431	-0.0851062	0.0379738	-0.27828	0.560233	0.606267	1.50367	0	0	0.121505	-0.436649	0.469905	0.78867	1.24937	0	0
0.06	0.403211	1.46152	-1.88245	0.687979	1.86244	0.93503	-0.153858	-0.0825788	-0.0427182	0.0507605	0.0705608	0	0	-0.156907	0.0391488	-0.0943406	0.0325296	0.0699559	0	0	-0.239071	-0.0292959	-0.0911489	0.049005	-0.266469	0.559699	0.605271	1.48908	0	0	0.143896	-0.429918	0.495801	0.74506	1.15719	0	0
0.07	0.258003	1.45975	-1.73523	0.689891	1.86205	0.934356	-0.164553	-0.0675748	-0.0436113	0.0433028	0.0672927	0	0	-0.160733	0.0231794	-0.0821005	0.0402569	0.0847535	0	0	-0.247567	-0.0136324	-0.0930385	0.0552478	-0.275649	0.57283	0.617165	1.47796	0	0	0.150395	-0.414095	0.49818	0.722095	1.13948	0	0
0.08	0.260517	1.46275	-1.73944	0.690582	1.86131	0.934132	-0.164644	-0.0683666	-0.0408338	0.0382325	0.0656886	0	0	-0.154738	0.0237336	-0.08634	0.0482533	0.0909328	0	0	-0.245994	-0.016378	-0.0883432	0.0722057	-0.241913	0.189766	0.581004	0.145268	0	0	0.152746	-0.410982	0.513075	0.718043	1.13406	0	0
0.09	0.260361	1.46448	-1.74097	0.691397	1.86056	0.933941	-0.165822	-0.0693938	-0.0392739	0.0338497	0.0648628	0	0	-0.150499	0.0244191	-0.0898637	0.0555939	0.0968332	0	0	-0.244729	-0.0165508	-0.087287	0.0752455	-0.242505	0.198221	0.587185	0.18997	0	0	0.150162	-0.40822	0.522341	0.716169	1.1285	0	0
0.1	0.257271	1.46296	-1.73917	0.692247	1.8599	0.933884	-0.170351	-0.0707915	-0.039341	0.0299416	0.0650956	0	0	-0.15022	0.0253421	-0.0925185	0.0618425	0.102008	0	0	-0.246534	-0.0155984	-0.0902592	0.0681632	-0.275142	0.573986	0.620611	1.47699	0	0	0.144829	-0.404415	0.524757	0.711558	1.11762	0	0
0.11	0.241164	1.46246	-1.72556	0.692242	1.85914	0.93395	-0.173382	-0.0692703	-0.0372363	0.0268297	0.064542	0	0	-0.149077	0.0240806	-0.109192	0.0672264	0.106328	0	0	-0.248522	-0.0168793	-0.08772	0.0727536	-0.272496	0.571498	0.621474	1.4748	0	0	0.142955	-0.402068	0.530904	0.705484	1.11163	0	0
0.12	0.236026	1.4647	-1.72329	0.69298	1.85842	0.933754	-0.172408	-0.0699335	-0.0343847	0.0252933	0.0645868	0	0	-0.14438	0.0242425	-0.113372	0.074616	0.111562	0	0	-0.246814	-0.0168783	-0.084193	0.0765936	-0.272566	0.571974	0.620606	1.47396	0	0	0.13955	-0.399795	0.53927	0.702181	1.10642	0	0
0.13	0.433417	1.48311	-1.92946	0.693599	1.8567	0.93339	-0.146557	-0.0885582	-0.026703	0.0293407	0.0670543	0	0	-0.121417	0.0427416	-0.116982	0.0755485	0.103577	0	0	-0.215655	-0.0245363	-0.07261	0.0734216	-0.269327	0.564942	0.608105	1.47802	0	0	0.119304	-0.415821	0.44578	0.767641	1.5708	0	0
0.14	0.260343	1.49021	-1.75327	0.696187	1.85578	0.932331	-0.146543	-0.0735488	-0.0291093	0.0264584	0.0648227	0	0	-0.114918	0.0265824	-0.10436	0.0870064	0.11912	0	0	-0.212143	-0.00415866	-0.0729023	0.0758648	-0.280159	0.577812	0.615643	1.48566	0	0	0.11461	-0.4033	0.440818	0.755281	1.5708	0	0
0.15	0.242308	1.49101	-1.73736	0.696399	1.85462	0.93233	-0.147714	-0.0721451	-0.0270421	0.0251274	0.0646555	0	0	-0.11433	0.0253243	-0.120524	0.0897001	0.12312	0	0	-0.211535	-0.00496237	-0.0699984	0.079107	-0.278223	0.580008	0.613564	1.48743	0	0	0.110784	-0.399753	0.441604	0.744507	1.5708	0	0
0.16	0.481277	1.49453	-1.9814	0.697817	1.85317	0.932324	-0.137823	-0.0944146	-0.0258062	0.0289457	0.0708814	0	0	-0.108858	0.0469782	-0.106739	0.0863416	0.114789	0	0	-0.200421	-0.0228239	-0.0661594	0.0801252	-0.274089	0.572321	0.607666	1.47321	0	0	0.0923759	-0.396067	0.526692	0.719497	1.25251	0	0
0.17	0.269935	1.50156	-1.76712	0.699773	1.85222	0.931537	-0.13685	-0.0774317	-0.0277931	0.0294411	0.0690413	0	0	-0.103835	0.029264	-0.108291	0.0957028	0.129362	0	0	-0.197906	-0.00292459	-0.0646838	0.0818922	-0.281434	0.57628	0.612981	1.47188	0	0	0.0865953	-0.387204	0.525635	0.709193	1.25159	0	0
0.18	0.269461	1.50232	-1.76816	0.700769	1.85104	0.931345	-0.135826	-0.0788136	-0.0274559	0.0324538	0.0716687	0	0	-0.10356	0.0302057	-0.110472	0.0982967	0.133035	0	0	-0.197175	-0.00460469	-0.0618561	0.0843059	-0.281453	0.579165	0.611061	1.47201	0	0	0.0812334	-0.382736	0.526207	0.698936	1.25069	0	0
0.19	0.273857	1.50473	-1.77315	0.701935	1.84976	0.93106	-0.132247	-0.0802626	-0.028851	0.0375469	0.0754869	0	0	-0.101471	0.0312005	-0.111551	0.10105	0.136702	0	0	-0.195292	-0.00828196	-0.0557737	0.100577	-0.247099	0.193621	0.566295	0.130224	0	0	0.0802041	-0.380045	0.539791	0.689539	1.2295	0	0
0.2	0.254507	1.50542	-1.75378	0.702773	1.84858	0.930874	-0.130421	-0.0796342	-0.0297447	0.0431475	0.078675	0	0	-0.0950347	0.0268992	-0.138335	0.116916	0.148753	0	0	-0.195189	-0.00950846	-0.0540095	0.102334	-0.245631	0.197494	0.567707	0.168142	0	0	0.0749471	-0.375863	0.5332	0.678135	1.23213	0	0
0.21	0.276627	1.50525	-1.77651	0.704502	1.84722	0.930702	-0.127557	-0.083962	-0.033103	0.0520218	0.0848856	0	0	-0.103636	0.0336971	-0.112791	0.103087	0.142629	0	0	-0.194762	-0.012244	-0.0517147	0.104912	-0.245952	0.191429	0.561581	0.136078	0	0	0.070116	-0.369034	0.527546	0.663355	1.20955	0	0
0.22	0.349123	1.48982	-1.85521	0.704203	1.84574	0.932727	-0.139635	-0.0944458	-0.0302865	0.058646	0.087421	0	0	-0.109957	0.0406963	-0.142553	0.125959	0.150937	0	0	-0.209482	-0.0253765	-0.0482158	0.0934081	-0.273058	0.570219	0.602481	1.43426	0	0	0.0575109	-0.381019	0.553497	0.675607	1.2801	0	0
0.23	0.518262	1.50066	-2.02336	0.706402	1.84426	0.930834	-0.117185	-0.107023	-0.0346873	0.0766486	0.10136	0	0	-0.110656	0.0561387	-0.111241	0.0939826	0.133961	0	0	-0.192401	-0.0331032	-0.0509006	0.0946145	-0.273557	0.574786	0.599626	1.4248	0	0	0.0565857	-0.349611	0.261799	0.649773	0.288674	0	0
0.24	0.500698	1.49984	-2.00672	0.707101	1.8428	0.930864	-0.113702	-0.107065	-0.0353445	0.088642	0.105675	0	0	-0.114083	0.056349	-0.124132	0.0928244	0.134868	0	0	-0.193621	-0.0357783	-0.0481092	0.0964696	-0.271222	0.574574	0.595686	1.42378	0	0	0.0497243	-0.350275	0.260272	0.643571	0.284168	0	0
0.25	0.525378	1.50308	-2.03133	0.709693	1.84133	0.930257	-0.10192	-0.111373	-0.0403904	0.107617	0.114551	0	0	-0.111725	0.0593349	-0.111864	0.094596	0.137208	0	0	-0.185726	-0.0388961	-0.0352846	0.0872778	-0.274885	0.560544	0.596934	1.42177	0	0	0.0567499	-0.519947	1.10346	0.920309	1.5708	0	0
0.26	0.527827	1.50306	-2.03331	0.711167	1.83984	0.930008	-0.0946289	-0.113545	-0.0424534	0.125205	0.121374	0	0	-0.113656	0.0609172	-0.111286	0.0946244	0.138748	0	0	-0.185119	-0.0414988	-0.0332633	0.087707	-0.274658	0.560143	0.59557	1.42245	0	0	0.0491576	-0.525409	1.1198	0.935875	1.5708	0	0
0.27	0.465753	1.51126	-1.96739	0.71317	1.83853	0.928586	-0.0795397	-0.108036	-0.0465422	0.146935	0.130207	0	0	-0.105994	0.0566844	-0.105746	0.0980949	0.143487	0	0	-0.178068	-0.0352808	-0.0328951	0.0862859	-0.277389	0.559119	0.598424	1.42233	0	0	0.0383022	-0.522747	1.10274	0.933708	1.5708	0	0
0.28	0.557411	1.50451	-2.05883	0.714892	1.83707	0.929083	-0.0729379	-0.120275	-0.0520668	0.171224	0.140007	0	0	-0.106873	0.061527	-0.121566	0.112161	0.151824	0	0	-0.18213	-0.0465151	-0.0318038	0.087437	-0.275033	0.556229	0.595037	1.42196	0	0	0.0272309	-0.521418	1.08132	0.9299	1.5708	0	0
0.29	0.52758	1.50289	-2.0311	0.715158	1.8353	0.929109	-0.0639137	-0.120058	-0.0515464	0.196591	0.148171	0	0	-0.118755	0.0643964	-0.123397	0.0958492	0.144526	0	0	-0.183839	-0.0503135	-0.0272122	0.0877487	-0.270202	0.549196	0.589948	1.42576	0	0	0.0151895	-0.52493	1.06655	0.933356	1.5708	0	0
